{
  "asset": {
    "version": "2.0",
    "generator": "Test 3D Earring"
  },
  "scene": 0,
  "scenes": [
    {
      "nodes": [0]
    }
  ],
  "nodes": [
    {
      "mesh": 0,
      "name": "Earring3D",
      "rotation": [0, 0, 0, 1],
      "scale": [1, 1, 1],
      "translation": [0, 0, 0]
    }
  ],
  "meshes": [
    {
      "primitives": [
        {
          "attributes": {
            "POSITION": 0,
            "NORMAL": 1,
            "TEXCOORD_0": 2
          },
          "indices": 3,
          "material": 0
        }
      ],
      "name": "EarringMesh"
    }
  ],
  "materials": [
    {
      "name": "Gold",
      "pbrMetallicRoughness": {
        "baseColorFactor": [1.0, 0.766, 0.336, 1.0],
        "metallicFactor": 1.0,
        "roughnessFactor": 0.1
      },
      "emissiveFactor": [0.1, 0.1, 0.1]
    }
  ],
  "accessors": [
    {
      "bufferView": 0,
      "componentType": 5126,
      "count": 24,
      "type": "VEC3",
      "max": [0.5, 0.5, 0.5],
      "min": [-0.5, -0.5, -0.5]
    },
    {
      "bufferView": 1,
      "componentType": 5126,
      "count": 24,
      "type": "VEC3"
    },
    {
      "bufferView": 2,
      "componentType": 5126,
      "count": 24,
      "type": "VEC2"
    },
    {
      "bufferView": 3,
      "componentType": 5123,
      "count": 36,
      "type": "SCALAR"
    }
  ],
  "bufferViews": [
    {
      "buffer": 0,
      "byteLength": 288,
      "byteOffset": 0
    },
    {
      "buffer": 0,
      "byteLength": 288,
      "byteOffset": 288
    },
    {
      "buffer": 0,
      "byteLength": 192,
      "byteOffset": 576
    },
    {
      "buffer": 0,
      "byteLength": 72,
      "byteOffset": 768
    }
  ],
  "buffers": [
    {
      "byteLength": 840,
      "uri": "data:application/octet-stream;base64,"
    }
  ]
} 